<svg xmlns="http://www.w3.org/2000/svg" xmlns:xlink="http://www.w3.org/1999/xlink" width="512" zoomAndPan="magnify" viewBox="0 0 384 383.999986" height="512" preserveAspectRatio="xMidYMid meet" version="1.0"><defs><g/><clipPath id="00cc02d651"><path d="M 38.398438 121.308594 L 150.148438 121.308594 L 150.148438 233.058594 L 38.398438 233.058594 Z M 38.398438 121.308594 " clip-rule="nonzero"/></clipPath><clipPath id="b45c5ad264"><path d="M 56.460938 180.222656 L 105.332031 180.222656 L 105.332031 213.746094 L 56.460938 213.746094 Z M 56.460938 180.222656 " clip-rule="nonzero"/></clipPath><clipPath id="c9a9172eba"><path d="M 49.574219 148.082031 L 112.578125 148.082031 L 112.578125 221.851562 L 49.574219 221.851562 Z M 49.574219 148.082031 " clip-rule="nonzero"/></clipPath></defs><rect x="-38.4" width="460.8" fill="#ffffff" y="-38.399999" height="460.799983" fill-opacity="1"/><rect x="-38.4" width="460.8" fill="#ffffff" y="-38.399999" height="460.799983" fill-opacity="1"/><g clip-path="url(#00cc02d651)"><path fill="#ffffff" d="M 27.226562 110.132812 L 161.324219 110.132812 L 161.324219 244.234375 L 27.226562 244.234375 Z M 27.226562 110.132812 " fill-opacity="1" fill-rule="nonzero"/><path fill="#ffffff" d="M 27.226562 110.132812 L 161.324219 110.132812 L 161.324219 244.234375 L 27.226562 244.234375 Z M 27.226562 110.132812 " fill-opacity="1" fill-rule="nonzero"/></g><path fill="#000000" d="M 123.800781 169.320312 L 123.800781 145.960938 L 139.285156 145.960938 L 139.285156 207.894531 L 123.800781 207.894531 L 123.800781 183.296875 L 101.59375 183.296875 L 101.59375 207.894531 L 86.109375 207.894531 L 86.109375 145.960938 L 101.59375 145.960938 L 101.59375 169.320312 Z M 123.800781 169.320312 " fill-opacity="1" fill-rule="nonzero"/><g clip-path="url(#b45c5ad264)"><path fill="#ffffff" d="M 56.460938 180.222656 L 105.308594 180.222656 L 105.308594 213.746094 L 56.460938 213.746094 Z M 56.460938 180.222656 " fill-opacity="1" fill-rule="nonzero"/></g><g clip-path="url(#c9a9172eba)"><path fill="#fbc50c" d="M 96.449219 172.722656 L 92.257812 172.722656 L 94.75 169.839844 C 95.320312 169.976562 95.910156 170.050781 96.53125 170.050781 C 100.691406 170.050781 104.089844 166.667969 104.117188 162.507812 C 104.144531 158.320312 100.753906 154.894531 96.53125 154.875 C 92.367188 154.875 88.960938 158.257812 88.945312 162.417969 C 88.933594 163.488281 89.152344 164.550781 89.578125 165.523438 L 83.457031 172.722656 L 80.773438 172.722656 L 73.125 163.261719 C 74.089844 161.707031 74.613281 159.910156 74.632812 158.066406 C 74.652344 155.414062 73.632812 152.914062 71.769531 151.035156 C 69.910156 149.144531 67.429688 148.097656 64.710938 148.082031 C 59.277344 148.082031 54.828125 152.503906 54.789062 157.949219 C 54.773438 160.601562 55.789062 163.097656 57.652344 164.988281 C 59.515625 166.878906 62.003906 167.921875 64.710938 167.941406 C 65.421875 167.941406 66.128906 167.867188 66.8125 167.722656 L 70.835938 172.738281 L 65.703125 172.738281 C 58.441406 172.722656 49.59375 174.910156 49.59375 189.910156 L 49.59375 205.765625 C 49.59375 214.632812 56.84375 221.882812 65.710938 221.882812 L 96.449219 221.882812 C 105.308594 221.882812 112.566406 214.632812 112.566406 205.765625 L 112.566406 189.910156 C 112.566406 176.582031 103.707031 172.722656 96.449219 172.722656 Z M 98.066406 212.570312 L 64.09375 212.570312 C 61.59375 212.570312 59.488281 210.460938 59.488281 207.964844 L 59.503906 189.910156 L 59.503906 187.15625 C 59.597656 184.730469 61.660156 182.714844 64.09375 182.714844 L 98.066406 182.714844 C 100.5625 182.714844 102.671875 184.824219 102.671875 187.320312 L 102.652344 205.382812 L 102.671875 205.382812 L 102.671875 207.964844 C 102.671875 210.460938 100.5625 212.570312 98.066406 212.570312 Z M 98.066406 212.570312 " fill-opacity="1" fill-rule="nonzero"/></g><path fill="#000000" d="M 74.222656 202.984375 C 74.207031 200.058594 74.1875 195.261719 74.167969 192.335938 C 74.152344 189.410156 76.339844 188.203125 78.847656 189.648438 C 81.347656 191.101562 85.527344 193.472656 88.027344 194.925781 C 90.523438 196.378906 90.578125 198.769531 88.089844 200.25 C 85.601562 201.730469 81.394531 204.148438 78.902344 205.621094 C 76.421875 207.101562 74.234375 205.910156 74.222656 202.984375 Z M 74.222656 202.984375 " fill-opacity="1" fill-rule="nonzero"/><g fill="#fbc50c" fill-opacity="1"><g transform="translate(128.346736, 206.001644)"><g><path d="M 45.390625 -38.375 L 50.96875 0 L 41.546875 0 L 38.59375 -21.4375 L 29.375 0 L 24.34375 0 L 15.125 -21.546875 L 12.109375 0 L 2.734375 0 L 8.328125 -38.375 L 16.609375 -38.375 L 26.90625 -14.25 L 37.21875 -38.375 Z M 45.390625 -38.375 "/></g></g></g><g fill="#fbc50c" fill-opacity="1"><g transform="translate(179.927775, 206.001644)"><g><path d="M 17.375 0.71875 C 14.632812 0.71875 12.046875 0.113281 9.609375 -1.09375 C 7.179688 -2.300781 5.226562 -4.035156 3.75 -6.296875 C 2.269531 -8.566406 1.53125 -11.21875 1.53125 -14.25 C 1.53125 -17.25 2.269531 -19.878906 3.75 -22.140625 C 5.226562 -24.410156 7.179688 -26.15625 9.609375 -27.375 C 12.046875 -28.601562 14.632812 -29.21875 17.375 -29.21875 C 20.113281 -29.21875 22.6875 -28.601562 25.09375 -27.375 C 27.507812 -26.15625 29.457031 -24.410156 30.9375 -22.140625 C 32.414062 -19.878906 33.15625 -17.25 33.15625 -14.25 C 33.15625 -11.21875 32.414062 -8.566406 30.9375 -6.296875 C 29.457031 -4.035156 27.507812 -2.300781 25.09375 -1.09375 C 22.6875 0.113281 20.113281 0.71875 17.375 0.71875 Z M 17.375 -7.453125 C 19.34375 -7.453125 20.957031 -8.09375 22.21875 -9.375 C 23.488281 -10.65625 24.125 -12.28125 24.125 -14.25 C 24.125 -16.1875 23.488281 -17.800781 22.21875 -19.09375 C 20.957031 -20.394531 19.34375 -21.046875 17.375 -21.046875 C 15.40625 -21.046875 13.789062 -20.394531 12.53125 -19.09375 C 11.269531 -17.800781 10.640625 -16.1875 10.640625 -14.25 C 10.640625 -12.28125 11.269531 -10.65625 12.53125 -9.375 C 13.789062 -8.09375 15.40625 -7.453125 17.375 -7.453125 Z M 17.375 -7.453125 "/></g></g></g><g fill="#fbc50c" fill-opacity="1"><g transform="translate(212.487798, 206.001644)"><g><path d="M 16.171875 -10.46875 L 22.796875 -28.5 L 32.171875 -28.5 L 20.21875 0 L 12.0625 0 L 0.109375 -28.5 L 9.53125 -28.5 Z M 16.171875 -10.46875 "/></g></g></g><g fill="#fbc50c" fill-opacity="1"><g transform="translate(242.581112, 206.001644)"><g><path d="M 12.609375 0 L 3.453125 0 L 3.453125 -28.5 L 12.609375 -28.5 Z M 12.71875 -32.890625 L 3.28125 -32.890625 L 3.28125 -40.234375 L 12.71875 -40.234375 Z M 12.71875 -32.890625 "/></g></g></g><g fill="#fbc50c" fill-opacity="1"><g transform="translate(256.558626, 206.001644)"><g><path d="M 16.875 -29.21875 C 19.582031 -29.21875 22.097656 -28.59375 24.421875 -27.34375 C 26.742188 -26.101562 28.609375 -24.359375 30.015625 -22.109375 C 31.421875 -19.867188 32.125 -17.320312 32.125 -14.46875 C 32.125 -13.625 32.03125 -12.65625 31.84375 -11.5625 L 10.6875 -11.5625 C 11.050781 -9.84375 11.78125 -8.507812 12.875 -7.5625 C 13.976562 -6.613281 15.347656 -6.140625 16.984375 -6.140625 C 18.304688 -6.140625 19.414062 -6.375 20.3125 -6.84375 C 21.207031 -7.320312 21.960938 -8.035156 22.578125 -8.984375 L 31.296875 -8.984375 C 30.234375 -6.097656 28.457031 -3.757812 25.96875 -1.96875 C 23.488281 -0.175781 20.457031 0.71875 16.875 0.71875 C 14.132812 0.71875 11.59375 0.0976562 9.25 -1.140625 C 6.914062 -2.390625 5.046875 -4.144531 3.640625 -6.40625 C 2.234375 -8.675781 1.53125 -11.289062 1.53125 -14.25 C 1.53125 -17.207031 2.234375 -19.816406 3.640625 -22.078125 C 5.046875 -24.347656 6.914062 -26.101562 9.25 -27.34375 C 11.59375 -28.59375 14.132812 -29.21875 16.875 -29.21875 Z M 16.875 -22.3125 C 15.34375 -22.3125 14.035156 -21.878906 12.953125 -21.015625 C 11.878906 -20.160156 11.144531 -18.910156 10.75 -17.265625 L 23.125 -17.265625 C 22.832031 -18.765625 22.15625 -19.976562 21.09375 -20.90625 C 20.039062 -21.84375 18.632812 -22.3125 16.875 -22.3125 Z M 16.875 -22.3125 "/></g></g></g><g fill="#000000" fill-opacity="1"><g transform="translate(263.774487, 207.251626)"><g><path d="M 17.4375 0 L 7.84375 0 L 13.53125 -29.703125 L 4.171875 -29.703125 L 5.8125 -38.375 L 34.140625 -38.375 L 32.5 -29.703125 L 23.125 -29.703125 Z M 17.4375 0 "/></g></g></g><g fill="#000000" fill-opacity="1"><g transform="translate(292.223333, 207.251626)"><g><path d="M 14.796875 -10.46875 L 24.828125 -28.5 L 34.640625 -28.5 L 17.21875 0 L 9.046875 0 L 2.578125 -28.5 L 11.625 -28.5 Z M 14.796875 -10.46875 "/></g></g></g><g fill="#000000" fill-opacity="1"><g transform="translate(134.839434, 221.853655)"><g><path d="M 4.375 0 L 2.734375 -5.6875 L 2.375 0 L 0.453125 0 L 0.6875 -3.640625 C 0.769531 -5.109375 0.835938 -6.316406 0.890625 -7.265625 L 4.140625 -7.265625 L 5.28125 -3 L 6.421875 -7.265625 L 9.671875 -7.265625 C 9.710938 -6.316406 9.78125 -5.109375 9.875 -3.640625 L 10.09375 0 L 8.1875 0 L 7.828125 -5.6875 L 6.1875 0 Z M 4.375 0 "/></g></g></g><g fill="#000000" fill-opacity="1"><g transform="translate(148.218626, 221.853655)"><g><path d="M 4.015625 0.078125 C 2.753906 0.078125 1.828125 -0.304688 1.234375 -1.078125 C 0.753906 -1.679688 0.515625 -2.445312 0.515625 -3.375 L 0.515625 -7.265625 L 2.4375 -7.265625 L 2.4375 -3.34375 C 2.4375 -2.039062 2.960938 -1.390625 4.015625 -1.390625 C 5.035156 -1.390625 5.546875 -2.039062 5.546875 -3.34375 L 5.546875 -7.265625 L 7.515625 -7.265625 L 7.515625 -3.375 C 7.515625 -2.4375 7.28125 -1.671875 6.8125 -1.078125 C 6.195312 -0.304688 5.265625 0.078125 4.015625 0.078125 Z M 4.015625 0.078125 "/></g></g></g><g fill="#000000" fill-opacity="1"><g transform="translate(159.076015, 221.853655)"><g><path d="M 0.578125 -7.265625 L 2.5 -7.265625 L 2.5 -1.46875 L 6.0625 -1.46875 L 6.0625 0 L 0.578125 0 Z M 0.578125 -7.265625 "/></g></g></g><g fill="#000000" fill-opacity="1"><g transform="translate(168.231498, 221.853655)"><g><path d="M 4.15625 0 L 2.25 0 L 2.25 -5.796875 L 0.15625 -5.796875 L 0.15625 -7.265625 L 6.265625 -7.265625 L 6.265625 -5.796875 L 4.15625 -5.796875 Z M 4.15625 0 "/></g></g></g><g fill="#000000" fill-opacity="1"><g transform="translate(177.461521, 221.853655)"><g><path d="M 0.59375 -7.265625 L 2.515625 -7.265625 L 2.515625 0 L 0.59375 0 Z M 0.59375 -7.265625 "/></g></g></g><g fill="#000000" fill-opacity="1"><g transform="translate(183.387106, 221.853655)"><g><path d="M 0.578125 0 L 0.578125 -7.265625 L 3.890625 -7.265625 C 4.847656 -7.265625 5.582031 -7.015625 6.09375 -6.515625 C 6.613281 -6.023438 6.875 -5.414062 6.875 -4.6875 C 6.875 -3.96875 6.613281 -3.351562 6.09375 -2.84375 C 5.582031 -2.34375 4.847656 -2.09375 3.890625 -2.09375 L 2.5 -2.09375 L 2.5 0 Z M 2.5 -3.5625 L 3.875 -3.5625 C 4.195312 -3.5625 4.460938 -3.660156 4.671875 -3.859375 C 4.878906 -4.066406 4.984375 -4.335938 4.984375 -4.671875 C 4.984375 -5.015625 4.878906 -5.285156 4.671875 -5.484375 C 4.460938 -5.691406 4.195312 -5.796875 3.875 -5.796875 L 2.5 -5.796875 Z M 2.5 -3.5625 "/></g></g></g><g fill="#000000" fill-opacity="1"><g transform="translate(193.300375, 221.853655)"><g><path d="M 0.578125 -7.265625 L 2.5 -7.265625 L 2.5 -1.46875 L 6.0625 -1.46875 L 6.0625 0 L 0.578125 0 Z M 0.578125 -7.265625 "/></g></g></g><g fill="#000000" fill-opacity="1"><g transform="translate(202.45586, 221.853655)"><g><path d="M 0.578125 -7.265625 L 6.0625 -7.265625 L 6.0625 -5.796875 L 2.5 -5.796875 L 2.5 -4.34375 L 5.203125 -4.34375 L 5.203125 -2.859375 L 2.5 -2.859375 L 2.5 -1.46875 L 6.0625 -1.46875 L 6.0625 0 L 0.578125 0 Z M 0.578125 -7.265625 "/></g></g></g><g fill="#000000" fill-opacity="1"><g transform="translate(211.735578, 221.853655)"><g/></g></g><g fill="#000000" fill-opacity="1"><g transform="translate(216.903391, 221.853655)"><g><path d="M 0.578125 0 L 0.578125 -7.265625 L 3.890625 -7.265625 C 4.847656 -7.265625 5.582031 -7.015625 6.09375 -6.515625 C 6.613281 -6.023438 6.875 -5.414062 6.875 -4.6875 C 6.875 -3.96875 6.613281 -3.351562 6.09375 -2.84375 C 5.582031 -2.34375 4.847656 -2.09375 3.890625 -2.09375 L 2.5 -2.09375 L 2.5 0 Z M 2.5 -3.5625 L 3.875 -3.5625 C 4.195312 -3.5625 4.460938 -3.660156 4.671875 -3.859375 C 4.878906 -4.066406 4.984375 -4.335938 4.984375 -4.671875 C 4.984375 -5.015625 4.878906 -5.285156 4.671875 -5.484375 C 4.460938 -5.691406 4.195312 -5.796875 3.875 -5.796875 L 2.5 -5.796875 Z M 2.5 -3.5625 "/></g></g></g><g fill="#000000" fill-opacity="1"><g transform="translate(226.81666, 221.853655)"><g><path d="M 0.578125 -7.265625 L 2.5 -7.265625 L 2.5 -1.46875 L 6.0625 -1.46875 L 6.0625 0 L 0.578125 0 Z M 0.578125 -7.265625 "/></g></g></g><g fill="#000000" fill-opacity="1"><g transform="translate(235.972141, 221.853655)"><g><path d="M 7.734375 0 L 5.71875 0 L 5.203125 -1.484375 L 2.625 -1.484375 L 2.109375 0 L 0.09375 0 L 2.46875 -7.265625 L 5.359375 -7.265625 Z M 4.875 -2.984375 L 3.90625 -5.96875 L 2.9375 -2.984375 Z M 4.875 -2.984375 "/></g></g></g><g fill="#000000" fill-opacity="1"><g transform="translate(246.61835, 221.853655)"><g><path d="M 4.15625 0 L 2.25 0 L 2.25 -5.796875 L 0.15625 -5.796875 L 0.15625 -7.265625 L 6.265625 -7.265625 L 6.265625 -5.796875 L 4.15625 -5.796875 Z M 4.15625 0 "/></g></g></g><g fill="#000000" fill-opacity="1"><g transform="translate(255.848373, 221.853655)"><g><path d="M 0.578125 -7.265625 L 6.046875 -7.265625 L 6.046875 -5.796875 L 2.5 -5.796875 L 2.5 -4 L 5.546875 -4 L 5.546875 -2.515625 L 2.5 -2.515625 L 2.5 0 L 0.578125 0 Z M 0.578125 -7.265625 "/></g></g></g><g fill="#000000" fill-opacity="1"><g transform="translate(264.991439, 221.853655)"><g><path d="M 4.078125 0.078125 C 2.804688 0.078125 1.832031 -0.34375 1.15625 -1.1875 C 0.601562 -1.851562 0.328125 -2.644531 0.328125 -3.5625 C 0.328125 -4.539062 0.601562 -5.382812 1.15625 -6.09375 C 1.832031 -6.96875 2.804688 -7.40625 4.078125 -7.40625 C 5.335938 -7.40625 6.3125 -6.96875 7 -6.09375 C 7.539062 -5.40625 7.8125 -4.5625 7.8125 -3.5625 C 7.8125 -2.632812 7.539062 -1.84375 7 -1.1875 C 6.3125 -0.34375 5.335938 0.078125 4.078125 0.078125 Z M 2.734375 -1.984375 C 3.066406 -1.585938 3.515625 -1.390625 4.078125 -1.390625 C 4.640625 -1.390625 5.082031 -1.585938 5.40625 -1.984375 C 5.738281 -2.378906 5.90625 -2.90625 5.90625 -3.5625 C 5.90625 -4.257812 5.742188 -4.828125 5.421875 -5.265625 C 5.097656 -5.710938 4.648438 -5.9375 4.078125 -5.9375 C 3.503906 -5.9375 3.054688 -5.710938 2.734375 -5.265625 C 2.410156 -4.828125 2.25 -4.257812 2.25 -3.5625 C 2.25 -2.90625 2.410156 -2.378906 2.734375 -1.984375 Z M 2.734375 -1.984375 "/></g></g></g><g fill="#000000" fill-opacity="1"><g transform="translate(275.960639, 221.853655)"><g><path d="M 6.875 -4.703125 C 6.875 -4.273438 6.765625 -3.851562 6.546875 -3.4375 C 6.328125 -3.019531 6.007812 -2.6875 5.59375 -2.4375 L 6.75 0 L 4.640625 0 L 3.640625 -2.109375 L 2.5 -2.109375 L 2.5 0 L 0.578125 0 L 0.578125 -7.265625 L 3.96875 -7.265625 C 4.925781 -7.265625 5.648438 -7.015625 6.140625 -6.515625 C 6.628906 -6.023438 6.875 -5.421875 6.875 -4.703125 Z M 2.5 -3.5625 L 3.875 -3.5625 C 4.195312 -3.5625 4.460938 -3.660156 4.671875 -3.859375 C 4.878906 -4.066406 4.984375 -4.335938 4.984375 -4.671875 C 4.984375 -5.015625 4.878906 -5.285156 4.671875 -5.484375 C 4.460938 -5.691406 4.195312 -5.796875 3.875 -5.796875 L 2.5 -5.796875 Z M 2.5 -3.5625 "/></g></g></g><g fill="#000000" fill-opacity="1"><g transform="translate(285.936018, 221.853655)"><g><path d="M 4.375 0 L 2.734375 -5.6875 L 2.375 0 L 0.453125 0 L 0.6875 -3.640625 C 0.769531 -5.109375 0.835938 -6.316406 0.890625 -7.265625 L 4.140625 -7.265625 L 5.28125 -3 L 6.421875 -7.265625 L 9.671875 -7.265625 C 9.710938 -6.316406 9.78125 -5.109375 9.875 -3.640625 L 10.09375 0 L 8.1875 0 L 7.828125 -5.6875 L 6.1875 0 Z M 4.375 0 "/></g></g></g><g fill="#000000" fill-opacity="1"><g transform="translate(299.31521, 221.853655)"><g/></g></g><g fill="#000000" fill-opacity="1"><g transform="translate(304.483023, 221.853655)"><g><path d="M 4.15625 0 L 2.25 0 L 2.25 -5.796875 L 0.15625 -5.796875 L 0.15625 -7.265625 L 6.265625 -7.265625 L 6.265625 -5.796875 L 4.15625 -5.796875 Z M 4.15625 0 "/></g></g></g><g fill="#000000" fill-opacity="1"><g transform="translate(313.713046, 221.853655)"><g><path d="M 2.546875 0 L 0.09375 -7.265625 L 2.171875 -7.265625 L 3.984375 -1.5625 L 5.796875 -7.265625 L 7.890625 -7.265625 L 5.421875 0 Z M 2.546875 0 "/></g></g></g></svg>